<svg id="carot-icon" xmlns="http://www.w3.org/2000/svg" xmlns:xlink="http://www.w3.org/1999/xlink" version="1.1" x="0px"
    y="0px" viewBox="0 0 100 100" enable-background="new 0 0 100 100" xml:space="preserve">
    <path
        d="M67.884,19.301c-0.094-0.949-0.845-1.699-1.793-1.793c-2.916-0.291-5.802,0.431-8.213,1.992  c0.002-0.119,0.017-0.237,0.017-0.357c0-5.25-2.332-10.172-6.397-13.504c-0.736-0.604-1.799-0.604-2.535,0  c-4.066,3.333-6.398,8.255-6.398,13.504c0,0.233,0.024,0.463,0.033,0.695c-2.502-1.787-5.573-2.64-8.687-2.329  c-0.948,0.094-1.699,0.845-1.793,1.793c-0.38,3.835,0.963,7.595,3.684,10.315c1.324,1.324,2.893,2.309,4.599,2.94  c-2.816,2.596-4.593,6.302-4.593,10.424c0,4.189,2.263,17.697,4.745,31.458c-0.001,0.025-0.007,0.048-0.007,0.073  c0,0.28,0.059,0.547,0.163,0.789c0.569,3.145,1.146,6.293,1.709,9.337c0.309,1.674,0.539,2.917,0.653,3.564  c0.98,5.531,3.284,6.613,6.932,6.613c3.736,0,6.069-1.089,6.938-6.653c0.166-1.062,0.68-3.874,1.328-7.434  c2.869-15.724,5.929-32.905,5.929-37.748c0-4.122-1.777-7.828-4.593-10.424c1.706-0.632,3.274-1.616,4.599-2.94  C66.921,26.897,68.264,23.137,67.884,19.301z M50.229,9.913c2.347,2.485,3.665,5.765,3.665,9.229c0,3.436-1.297,6.708-3.65,9.211  c-0.005,0.005-0.01,0.011-0.015,0.016c-2.364-2.506-3.666-5.781-3.666-9.227C46.563,15.678,47.882,12.398,50.229,9.913z   M36.101,21.492c2.001,0.207,3.855,1.086,5.296,2.527c1.441,1.442,2.32,3.308,2.528,5.296c-2.002-0.208-3.855-1.086-5.297-2.528  C37.187,25.347,36.309,23.481,36.101,21.492z M60.194,42.981c0,4.886-3.814,25.796-5.863,37.03c-0.68,3.728-1.172,6.421-1.345,7.534  C52.476,90.815,52,90.815,50,90.815c-1.991,0-2.405,0-2.992-3.311c-0.116-0.654-0.348-1.907-0.66-3.594  c-0.356-1.925-0.83-4.491-1.359-7.399h4.899c1.104,0,2-0.896,2-2s-0.896-2-2-2h-5.622c-0.296-1.65-0.6-3.36-0.904-5.092h6.526  c1.104,0,2-0.896,2-2s-0.896-2-2-2h-7.221c-0.309-1.8-0.608-3.586-0.892-5.318h8.113c1.104,0,2-0.896,2-2s-0.896-2-2-2h-8.751  c-0.787-5.077-1.33-9.251-1.33-11.121c0-5.621,4.573-10.194,10.194-10.194S60.194,37.359,60.194,42.981z M61.372,26.788  c-1.441,1.441-3.295,2.32-5.297,2.527c0.208-1.988,1.087-3.854,2.528-5.296c1.44-1.441,3.295-2.32,5.296-2.527  C63.691,23.481,62.813,25.347,61.372,26.788z">
    </path>
</svg>